<svg width="50" height="46" viewBox="0 0 50 46" fill="none" xmlns="http://www.w3.org/2000/svg">
<path d="M34.4569 0C34.5605 0 34.6641 0 34.7709 0C34.8435 0.14616 34.9162 0.292319 34.9911 0.442908C35.776 2.01854 36.5732 3.58763 37.3769 5.15372C37.5762 5.54204 37.7751 5.93051 37.9741 6.319C38.6961 7.72769 39.4262 9.13181 40.1652 10.5317C40.753 11.6461 41.3308 12.7655 41.9061 13.8865C42.7259 15.4838 43.5487 17.0792 44.3885 18.6662C45.0289 19.8781 45.6571 21.0963 46.286 22.3142C47.0517 23.797 47.8209 25.2778 48.5958 26.7557C48.7013 26.9574 48.7013 26.9574 48.809 27.1631C48.8688 27.2772 48.9287 27.3913 48.9903 27.5088C49.3325 28.1751 49.665 28.8463 50 29.5163C47.824 29.5163 45.6479 29.5163 43.4059 29.5163C43.0271 28.8071 43.0271 28.8071 42.6406 28.0836C42.5615 27.9365 42.4823 27.7893 42.4008 27.6377C42.3379 27.5189 42.2749 27.4002 42.21 27.2778C42.1459 27.1577 42.0818 27.0377 42.0157 26.914C41.8148 26.4884 41.6708 26.0377 41.5219 25.5912C34.5275 25.669 34.5275 25.669 27.3918 25.7482C26.8219 26.9399 26.252 28.1315 25.6648 29.3593C25.5078 29.5163 25.5078 29.5163 24.9384 29.5261C24.6835 29.5231 24.4287 29.5198 24.1739 29.5163C23.8953 29.5161 23.6168 29.5163 23.3383 29.5169C22.8989 29.5176 22.46 29.5164 22.0207 29.5082C20.0151 29.4196 20.0151 29.4196 18.3207 30.3467C18.2062 30.4744 18.0917 30.6022 17.9737 30.7338C17.5165 31.2438 16.9973 31.4933 16.3821 31.7732C16.2799 31.8228 16.1777 31.8723 16.0724 31.9234C13.3141 33.2397 10.2031 33.3836 7.28205 32.4498C4.6313 31.5015 2.50948 29.5058 1.202 27.0435C0.357158 25.2241 0.0206107 23.6173 0.00486796 21.627C0.00326154 21.4709 0.00165511 21.3149 0 21.1542C0.033201 18.3565 1.32545 15.7185 3.23321 13.7082C4.13663 12.8395 5.09471 12.2135 6.19661 11.6181C6.31743 11.5521 6.43826 11.4862 6.56274 11.4182C8.78883 10.3196 11.702 10.1343 14.0786 10.8368C16.6433 11.7323 19.2237 13.1139 20.6407 15.5431C20.6407 15.6986 20.6407 15.854 20.6407 16.0142C20.3769 16.2525 20.3769 16.2525 20.0103 16.5011C19.8785 16.591 19.7468 16.6808 19.611 16.7734C19.4716 16.8661 19.3321 16.9588 19.1885 17.0543C19.0515 17.1482 18.9144 17.2421 18.7733 17.3389C17.6528 18.095 17.6528 18.095 17.0297 18.2122C16.9441 18.1098 16.8585 18.0074 16.7703 17.9018C15.3237 16.2253 13.7981 15.1836 11.5285 15.012C9.72169 14.9335 8.38874 15.3387 6.98714 16.498C5.77558 17.6398 4.85149 19.2391 4.75416 20.918C4.71346 23.2887 5.26673 25.1979 6.9117 26.9503C8.29994 28.2522 9.74307 28.5253 11.591 28.4994C12.6134 28.4598 13.4805 28.345 14.3607 27.7893C14.4704 27.7209 14.5801 27.6524 14.6931 27.582C16.0946 26.6141 16.8761 25.4292 17.5007 23.8642C17.6043 23.6052 17.708 23.3461 17.8147 23.0792C19.369 23.0792 20.9233 23.0792 22.5248 23.0792C22.7445 22.6492 22.9643 22.2191 23.1908 21.776C23.4095 21.3483 23.6283 20.9206 23.8472 20.4929C23.9964 20.2011 24.1456 19.9093 24.2947 19.6174C25.1303 17.9821 25.9719 16.3506 26.8295 14.7267C27.4081 13.6305 27.9769 12.5294 28.543 11.4266C28.8303 10.8672 29.118 10.308 29.4058 9.74881C29.4626 9.6386 29.5193 9.52839 29.5777 9.41485C30.1282 8.34614 30.684 7.28031 31.2412 6.21509C31.9078 4.94004 32.5694 3.66248 33.2303 2.38446C33.2828 2.28283 33.3354 2.1812 33.3896 2.07649C33.9279 1.04065 33.9279 1.04065 34.4569 0Z" fill="#B8660E"/>
<path d="M34.3015 11.147C34.789 11.7329 35.1018 12.391 35.438 13.0696C35.5013 13.1963 35.5646 13.323 35.6298 13.4535C35.7638 13.722 35.8974 13.9905 36.0308 14.2592C36.2316 14.6637 36.4334 15.0677 36.6354 15.4716C38.6976 19.6043 38.6976 19.6043 38.6976 20.0961C35.848 20.0961 32.9984 20.0961 30.0625 20.0961C30.269 19.4766 30.4562 18.9541 30.7386 18.3797C30.8099 18.2341 30.8812 18.0884 30.9546 17.9384C31.0692 17.7065 31.0692 17.7065 31.186 17.47C31.265 17.309 31.344 17.148 31.4253 16.9822C31.677 16.4695 31.9295 15.9572 32.182 15.4449C32.352 15.099 32.5218 14.7531 32.6917 14.4072C33.8718 12.0047 33.8718 12.0047 34.3015 11.147Z" fill="white"/>
<path d="M19.8558 33.1274C19.9594 33.1274 20.0631 33.1274 20.1698 33.1274C20.0128 34.2937 20.0128 34.2937 19.8558 34.8545C20.0113 34.8545 20.1667 34.8545 20.3268 34.8545C20.275 34.9581 20.2232 35.0617 20.1698 35.1685C20.0144 35.1167 19.859 35.0648 19.6988 35.0115C19.6816 35.1011 19.6644 35.1908 19.6467 35.2831C19.4946 36.061 19.3259 36.8316 19.1395 37.602C18.8307 38.9434 18.7445 40.2236 18.7372 41.5957C18.7364 41.7129 18.7357 41.8302 18.7349 41.951C18.7365 42.4528 18.754 42.8531 18.9138 43.3325C19.5393 43.124 19.5924 42.8799 19.9006 42.3059C19.9968 42.1272 20.0931 41.9485 20.1922 41.7644C20.2417 41.6705 20.2912 41.5767 20.3422 41.48C20.4919 41.1968 20.6442 40.9151 20.7969 40.6335C21.2646 39.7571 21.6485 38.9545 21.8968 37.9945C22.0005 37.9945 22.1041 37.9945 22.2108 37.9945C22.2108 38.668 22.2108 39.3416 22.2108 40.0355C22.9289 39.7254 23.352 39.4381 23.7809 38.7795C23.978 38.2804 23.978 38.2804 24.0949 37.8375C24.1985 37.8375 24.3021 37.8375 24.4089 37.8375C24.3571 38.252 24.3052 38.6665 24.2519 39.0935C24.3458 38.9381 24.4397 38.7826 24.5364 38.6225C24.6498 38.4671 24.7631 38.3116 24.8799 38.1515C25.0353 38.1515 25.1907 38.1515 25.3509 38.1515C25.4027 38.6696 25.4545 39.1877 25.5079 39.7215C26.1767 39.4769 26.1767 39.4769 26.3223 38.8972C26.4899 38.1017 26.5168 37.2925 26.5529 36.4821C26.6072 35.9505 26.733 35.5101 26.9209 35.0115C27.0245 35.0115 27.1281 35.0115 27.2349 35.0115C27.1302 36.5815 27.0255 38.1515 26.9209 39.7215C27.0147 39.54 27.0147 39.54 27.1104 39.3548C27.1936 39.1973 27.2767 39.0398 27.3624 38.8776C27.4854 38.6427 27.4854 38.6427 27.6108 38.4029C27.8629 37.9945 27.8629 37.9945 28.3339 37.6805C28.2544 38.021 28.1769 38.3084 28.0199 38.6225C27.9309 39.6017 28.0839 40.5043 28.3339 41.4485C28.1785 41.3967 28.023 41.3449 27.8629 41.2915C27.6508 40.781 27.5343 40.2572 27.3919 39.7215C27.1846 40.2396 26.9774 40.7577 26.7639 41.2915C26.6603 41.2915 26.5566 41.2915 26.4499 41.2915C26.3981 40.7734 26.3463 40.2553 26.2929 39.7215C26.1374 39.8769 26.1374 39.8769 25.9789 40.0355C25.5667 39.9766 25.5667 39.9766 25.1939 39.8785C25.0902 39.5158 24.9866 39.1532 24.8799 38.7795C24.6726 39.1422 24.4654 39.5048 24.2519 39.8785C24.0964 39.8785 23.941 39.8785 23.7809 39.8785C23.729 39.7749 23.6772 39.6713 23.6239 39.5645C23.5105 39.694 23.3972 39.8236 23.2804 39.957C22.8388 40.3495 22.8388 40.3495 22.3973 40.3986C22.2839 40.3824 22.1706 40.3662 22.0538 40.3495C22.002 40.1941 21.9502 40.0386 21.8968 39.8785C21.5008 40.2375 21.2669 40.5996 21.0186 41.0713C20.9072 41.2795 20.9072 41.2795 20.7935 41.4918C20.6391 41.784 20.485 42.0763 20.3311 42.3688C20.2197 42.5766 20.2197 42.5766 20.106 42.7886C20.0392 42.9155 19.9723 43.0424 19.9033 43.1731C19.6988 43.4895 19.6988 43.4895 19.2278 43.8035C18.763 43.7472 18.6239 43.6706 18.2858 43.3325C17.4892 40.8861 18.3336 37.542 19.0708 35.1685C18.6563 35.2203 18.2418 35.2721 17.8148 35.3255C17.763 37.5015 17.7112 39.6775 17.6578 41.9195C17.4247 41.8418 17.4247 41.8418 17.1868 41.7625C17.1868 40.9854 17.1868 40.2082 17.1868 39.4075C16.9828 39.5565 16.7788 39.7054 16.5686 39.8589C16.4539 39.9427 16.3391 40.0265 16.2209 40.1128C15.9134 40.3307 15.9134 40.3307 15.7738 40.6635C15.8742 40.7121 15.9745 40.7607 16.078 40.8107C16.4018 40.9775 16.4018 40.9775 16.5588 41.1345C16.6445 42.0244 16.669 42.763 16.0878 43.4895C15.7934 43.4601 15.7934 43.4601 15.4598 43.3325C15.1618 42.7532 15.1106 42.2805 15.1262 41.635C15.129 41.4818 15.1318 41.3285 15.1347 41.1707C15.1384 41.0551 15.142 40.9396 15.1458 40.8205C14.6018 40.8982 14.6018 40.8982 14.0468 40.9775C14.0468 40.8739 14.0468 40.7703 14.0468 40.6635C14.4094 40.6117 14.7721 40.5599 15.1458 40.5065C15.094 40.2475 15.0422 39.9884 14.9888 39.7215C14.8431 39.7312 14.6973 39.7409 14.5472 39.7509C14.0468 39.7215 14.0468 39.7215 13.7524 39.486C13.6941 39.4083 13.6358 39.3306 13.5758 39.2505C13.5078 39.3541 13.4398 39.4577 13.3697 39.5645C13.2386 39.7199 13.2386 39.7199 13.1048 39.8785C12.9493 39.8785 12.7939 39.8785 12.6338 39.8785C12.6338 39.5676 12.6338 39.2568 12.6338 38.9365C12.2524 38.9154 12.2524 38.9154 11.8487 39.0935C11.6316 39.4947 11.5005 39.9113 11.3777 40.3495C11.2223 40.2977 11.0669 40.2459 10.9067 40.1925C10.8551 40.2876 10.8035 40.3828 10.7504 40.4808C9.94302 41.9029 8.87654 43.4896 7.29571 44.1175C6.79946 44.2365 6.56543 44.2124 6.0397 44.1175C5.26696 43.412 4.9409 42.6352 4.89346 41.6006C4.89038 41.3668 4.88988 41.1329 4.89162 40.899C4.89251 40.7746 4.8934 40.6502 4.89431 40.522C4.94241 38.1552 5.61225 35.5079 7.29571 33.7554C7.77988 33.3582 8.02265 33.2904 8.64985 33.2256C9.17973 33.2844 9.17973 33.2844 9.44344 33.4709C9.89379 34.0891 9.74056 34.9167 9.65073 35.6395C9.45197 36.35 9.22213 37.0329 8.86572 37.6805C8.71029 37.7323 8.55486 37.7841 8.39472 37.8375C8.42508 37.7482 8.45543 37.659 8.48671 37.567C8.61494 37.1868 8.74048 36.8057 8.86572 36.4245C8.92725 36.2399 8.98877 36.0553 9.05216 35.8652C9.20152 35.2332 9.21322 34.717 9.17973 34.0695C9.00853 33.8686 9.00853 33.8686 8.60078 33.8339C7.94228 33.9333 7.76947 34.1249 7.37544 34.6416C6.12505 36.595 5.52385 38.8473 5.50001 41.1541C5.49841 41.2619 5.49682 41.3696 5.49518 41.4806C5.50881 42.2635 5.67212 42.8111 6.0397 43.4895C6.57306 43.6987 6.90374 43.7377 7.44535 43.5276C8.81781 42.7549 9.66176 41.4983 10.4259 40.1631C10.4871 40.0568 10.5483 39.9504 10.6114 39.8409C10.9502 39.2255 11.1511 38.7052 11.2207 37.9945C11.3244 37.9945 11.428 37.9945 11.5347 37.9945C11.6125 38.3831 11.6125 38.3831 11.6917 38.7795C12.1062 38.7795 12.5207 38.7795 12.9478 38.7795C12.9769 38.6338 12.9769 38.6338 13.0066 38.4851C13.1048 38.1515 13.1048 38.1515 13.4188 37.8375C13.8309 37.8179 13.8309 37.8179 14.2038 37.8375C14.2038 37.9411 14.2038 38.0447 14.2038 38.1515C13.9447 38.2551 13.6857 38.3587 13.4188 38.4655C13.4188 38.5173 13.4188 38.5691 13.4188 38.6225C13.626 38.5189 13.8332 38.4153 14.0468 38.3085C14.1245 38.7748 14.1245 38.7748 14.2038 39.2505C14.8209 39.1603 14.8209 39.1603 15.3028 38.7795C15.4244 38.4214 15.5221 38.0603 15.6205 37.6952C15.8105 37.2878 15.9896 37.2085 16.4018 37.0525C16.2565 37.6631 16.0641 38.2555 15.8713 38.8525C15.771 39.2621 15.7565 39.6156 15.7738 40.0355C16.3508 39.7687 16.6914 39.4774 17.0298 38.9365C17.2447 37.8588 17.208 36.734 17.1868 35.6395C16.9767 35.7047 16.9767 35.7047 16.7624 35.7713C16.5786 35.8282 16.3949 35.8851 16.2055 35.9437C16.0234 36.0001 15.8412 36.0566 15.6536 36.1148C15.2759 36.2283 14.9014 36.3343 14.5178 36.4245C14.5178 36.3209 14.5178 36.2172 14.5178 36.1105C16.478 35.2382 16.478 35.2382 17.5008 35.1685C17.6044 34.8576 17.708 34.5467 17.8148 34.2265C17.9702 34.3042 17.9702 34.3042 18.1288 34.3835C18.1288 34.5389 18.1288 34.6943 18.1288 34.8545C18.6728 34.7767 18.6728 34.7767 19.2278 34.6975C19.4351 34.1794 19.6423 33.6612 19.8558 33.1274Z" fill="#B8660E"/>
<path d="M36.8118 33.4414C36.8533 34.5214 36.6942 35.5211 36.4978 36.5814C36.4528 36.8313 36.4528 36.8313 36.407 37.0862C36.3335 37.4938 36.2591 37.9012 36.1838 38.3085C36.391 38.3085 36.5982 38.3085 36.8118 38.3085C36.8312 38.1887 36.8506 38.0688 36.8706 37.9454C36.9688 37.5235 36.9688 37.5235 37.2828 37.0525C37.3864 37.0525 37.49 37.0525 37.5968 37.0525C37.5482 37.2815 37.499 37.5105 37.4496 37.7393C37.4223 37.8668 37.3949 37.9943 37.3668 38.1257C37.2828 38.4655 37.2828 38.4655 37.1258 38.7795C37.1194 39.1458 37.119 39.5122 37.1258 39.8785C37.9463 39.29 37.9463 39.29 38.372 38.4066C38.3752 38.2706 38.3784 38.1346 38.3818 37.9945C38.4854 37.9945 38.589 37.9945 38.6958 37.9945C38.7735 38.383 38.7735 38.383 38.8528 38.7795C38.9046 38.7277 38.9564 38.6758 39.0098 38.6225C39.2714 38.6161 39.5332 38.6158 39.7948 38.6225C39.8466 38.4152 39.8984 38.208 39.9518 37.9945C40.0554 37.9945 40.159 37.9945 40.2658 37.9945C40.3435 38.9271 40.3435 38.9271 40.4228 39.8785C41.099 39.7094 41.2458 39.6103 41.6788 39.0935C41.8408 38.782 41.9983 38.4682 42.1498 38.1515C42.2534 38.0478 42.357 37.9442 42.4638 37.8375C42.7974 37.8963 42.7974 37.8963 43.0918 37.9945C43.0918 38.0981 43.0918 38.2017 43.0918 38.3085C42.781 38.4639 42.781 38.4639 42.4638 38.6225C42.4638 38.9851 42.4638 39.3478 42.4638 39.7215C42.8158 39.8141 42.8158 39.8141 43.2488 39.7215C43.7493 39.2683 44.1283 38.7115 44.5146 38.1613C44.8188 37.8375 44.8188 37.8375 45.2506 37.7884C45.3672 37.8046 45.4837 37.8208 45.6038 37.8375C45.6038 37.9411 45.6038 38.0447 45.6038 38.1515C45.3448 38.2551 45.0857 38.3587 44.8188 38.4655C44.8188 38.5173 44.8188 38.5691 44.8188 38.6225C45.0261 38.5188 45.2333 38.4152 45.4468 38.3085C45.5245 38.7748 45.5245 38.7748 45.6038 39.2505C46.1288 39.163 46.551 39.0382 47.0168 38.7795C46.836 39.1669 46.6953 39.415 46.3888 39.7215C45.5574 39.8099 45.5574 39.8099 45.1525 39.486C45.0942 39.4083 45.0359 39.3305 44.9758 39.2505C44.8204 39.4577 44.665 39.665 44.5048 39.8785C44.4174 39.8429 44.33 39.8072 44.2399 39.7705C43.7334 39.7021 43.5202 39.9313 43.0918 40.1925C42.5776 40.2677 42.3825 40.2416 41.9437 39.957C41.8563 39.8793 41.7689 39.8015 41.6788 39.7215C41.5655 39.8283 41.4521 39.9352 41.3354 40.0453C40.8938 40.3495 40.8938 40.3495 40.4719 40.3397C40.1088 40.1925 40.1088 40.1925 39.7948 39.7215C39.7752 39.2995 39.7752 39.2995 39.7948 38.9365C39.4134 38.9154 39.4134 38.9154 39.0098 39.0935C38.7927 39.4946 38.6616 39.9112 38.5388 40.3495C38.2248 40.1925 38.2248 40.1925 38.0678 39.7215C37.7569 39.9287 37.446 40.136 37.1258 40.3495C37.2553 40.479 37.3848 40.6085 37.5183 40.742C37.928 41.237 38.018 41.6023 37.9801 42.2384C37.8646 42.7536 37.6104 43.08 37.2828 43.4895C36.915 43.3424 36.6979 43.2414 36.4781 42.9057C36.309 42.4648 36.3099 42.1155 36.3211 41.6447C36.324 41.4901 36.3268 41.3355 36.3297 41.1762C36.3334 41.0588 36.337 40.9414 36.3408 40.8205C36.1853 40.8982 36.1853 40.8982 36.0267 40.9775C35.6734 42.2964 35.632 43.7027 35.5557 45.0595C35.4521 45.0595 35.3485 45.0595 35.2417 45.0595C35.2002 43.7069 35.266 42.3829 35.3889 41.0364C35.4026 40.8857 35.4162 40.735 35.4303 40.5797C35.4892 39.9645 35.5493 39.3769 35.7127 38.7795C35.3547 38.9436 34.9988 39.1107 34.6432 39.2799C34.5423 39.3258 34.4414 39.3716 34.3375 39.4188C33.3613 39.8892 33.0952 40.4716 32.7395 41.4485C32.4988 42.0594 32.283 42.5682 31.7877 43.0185C31.3658 43.0774 31.3658 43.0774 31.0027 43.0185C30.9509 42.9667 30.8991 42.9149 30.8457 42.8615C30.8457 41.7701 31.3614 41.2609 32.1017 40.5065C32.3106 40.3073 32.3106 40.3073 32.5237 40.1042C33.0021 39.5351 33.1155 38.8056 33.2877 38.1004C33.4891 37.277 33.7537 36.5474 34.1427 35.7964C34.2043 35.6756 34.2658 35.5548 34.3292 35.4303C35.544 33.1412 35.544 33.1412 36.8118 33.4414Z" fill="#B8660E"/>
<path d="M9.17973 33.2843C9.54845 33.545 9.63925 33.695 9.72432 34.1417C9.73806 35.4227 9.48827 36.5492 8.86572 37.6803C8.71029 37.7321 8.55486 37.7839 8.39472 37.8373C8.42508 37.7481 8.45543 37.6588 8.48671 37.5669C8.61494 37.1866 8.74048 36.8056 8.86572 36.4243C8.92725 36.2397 8.98877 36.0552 9.05216 35.865C9.20152 35.2331 9.21322 34.7168 9.17973 34.0693C9.00853 33.8685 9.00853 33.8685 8.60078 33.8338C7.94228 33.9332 7.76947 34.1247 7.37544 34.6415C6.12505 36.5948 5.52385 38.8472 5.50001 41.154C5.49841 41.2617 5.49682 41.3694 5.49518 41.4804C5.50881 42.2633 5.67212 42.8109 6.0397 43.4894C6.57306 43.6985 6.90374 43.7376 7.44535 43.5274C8.81781 42.7547 9.66176 41.4982 10.4259 40.1629C10.4871 40.0566 10.5483 39.9503 10.6114 39.8407C10.9502 39.2253 11.1511 38.705 11.2207 37.9943C11.3244 37.9943 11.428 37.9943 11.5347 37.9943C11.6125 38.3829 11.6125 38.3829 11.6917 38.7793C12.1062 38.7793 12.5207 38.7793 12.9478 38.7793C12.9769 38.6336 12.9769 38.6336 13.0066 38.485C13.1048 38.1513 13.1048 38.1513 13.4188 37.8373C13.8309 37.8177 13.8309 37.8177 14.2038 37.8373C14.2038 37.9409 14.2038 38.0446 14.2038 38.1513C13.9447 38.255 13.6857 38.3586 13.4188 38.4653C13.4188 38.5171 13.4188 38.569 13.4188 38.6223C13.626 38.5187 13.8332 38.4151 14.0468 38.3083C14.1245 38.7746 14.1245 38.7746 14.2038 39.2503C14.4628 39.3022 14.7219 39.354 14.9888 39.4073C14.9888 39.511 14.9888 39.6146 14.9888 39.7213C14.1192 39.7793 14.1192 39.7793 13.7524 39.4858C13.6941 39.4081 13.6358 39.3304 13.5758 39.2503C13.5078 39.354 13.4398 39.4576 13.3697 39.5643C13.2386 39.7198 13.2386 39.7198 13.1048 39.8783C12.9493 39.8783 12.7939 39.8783 12.6338 39.8783C12.6338 39.5675 12.6338 39.2566 12.6338 38.9363C12.2524 38.9152 12.2524 38.9152 11.8487 39.0933C11.6316 39.4945 11.5005 39.9111 11.3777 40.3494C11.2223 40.2975 11.0669 40.2457 10.9067 40.1924C10.8551 40.2875 10.8035 40.3826 10.7504 40.4806C9.94302 41.9027 8.87654 43.4894 7.29571 44.1174C6.79946 44.2364 6.56543 44.2122 6.0397 44.1174C5.26696 43.4118 4.9409 42.6351 4.89346 41.6005C4.89038 41.3666 4.88988 41.1327 4.89162 40.8989C4.89251 40.7744 4.8934 40.65 4.89431 40.5218C4.94241 38.1551 5.61225 35.5077 7.29571 33.7553C7.90933 33.2518 8.39459 33.197 9.17973 33.2843Z" fill="#B8660E"/>
<path d="M26.9211 35.0112C27.0247 35.0112 27.1283 35.0112 27.2351 35.0112C27.1304 36.5812 27.0257 38.1513 26.9211 39.7213C26.9836 39.6002 27.0462 39.4792 27.1106 39.3545C27.1938 39.1971 27.2769 39.0396 27.3626 38.8774C27.4446 38.7207 27.5266 38.5641 27.611 38.4027C27.8631 37.9943 27.8631 37.9943 28.3341 37.6803C28.2546 38.0208 28.1771 38.3082 28.0201 38.6223C27.9311 39.6015 28.0841 40.5041 28.3341 41.4483C28.1009 41.3706 28.1009 41.3706 27.8631 41.2913C27.651 40.7808 27.5345 40.2569 27.3921 39.7213C27.0812 40.4984 27.0812 40.4984 26.7641 41.2913C26.6605 41.2913 26.5568 41.2913 26.4501 41.2913C26.3983 40.7732 26.3465 40.2551 26.2931 39.7213C26.1895 39.8249 26.0858 39.9285 25.9791 40.0353C25.5669 39.9764 25.5669 39.9764 25.1941 39.8783C25.0904 39.5156 24.9868 39.1529 24.8801 38.7793C24.6728 39.1419 24.4656 39.5046 24.2521 39.8783C24.0966 39.8783 23.9412 39.8783 23.7811 39.8783C23.7033 39.7228 23.7033 39.7228 23.6241 39.5643C23.5107 39.6938 23.3974 39.8233 23.2806 39.9568C22.839 40.3493 22.839 40.3493 22.3975 40.3983C22.2841 40.3822 22.1708 40.366 22.054 40.3493C22.0022 40.1938 21.9504 40.0384 21.897 39.8783C21.501 40.2372 21.2671 40.5994 21.0188 41.0711C20.9445 41.2099 20.8703 41.3486 20.7937 41.4915C20.6393 41.7837 20.4852 42.0761 20.3313 42.3685C20.2199 42.5763 20.2199 42.5763 20.1062 42.7883C20.0393 42.9152 19.9725 43.0421 19.9035 43.1729C19.699 43.4893 19.699 43.4893 19.228 43.8033C18.7632 43.747 18.6241 43.6704 18.286 43.3323C18.0672 42.6667 18.099 41.9944 18.0996 41.3011C18.0995 41.1691 18.0994 41.0371 18.0993 40.901C18.1085 39.8027 18.2262 38.7585 18.443 37.6803C18.5984 37.6284 18.7539 37.5766 18.914 37.5233C18.9027 37.685 18.8913 37.8467 18.8797 38.0133C18.7987 39.2304 18.7406 40.4441 18.7374 41.6642C18.7367 41.777 18.736 41.8898 18.7352 42.006C18.7366 42.4914 18.7593 42.8683 18.914 43.3323C19.5395 43.1238 19.5926 42.8797 19.9008 42.3057C19.997 42.127 20.0933 41.9483 20.1924 41.7641C20.2419 41.6703 20.2914 41.5765 20.3424 41.4798C20.4921 41.1965 20.6444 40.9148 20.7971 40.6332C21.2648 39.7569 21.6487 38.9542 21.897 37.9943C22.0007 37.9943 22.1043 37.9943 22.211 37.9943C22.211 38.6678 22.211 39.3413 22.211 40.0353C22.9291 39.7252 23.3522 39.4378 23.7811 38.7793C23.9782 38.2801 23.9782 38.2801 24.0951 37.8373C24.1987 37.8373 24.3023 37.8373 24.4091 37.8373C24.3572 38.2517 24.3054 38.6662 24.2521 39.0933C24.346 38.9378 24.4399 38.7824 24.5366 38.6223C24.65 38.4668 24.7633 38.3114 24.8801 38.1513C25.0355 38.1513 25.1909 38.1513 25.3511 38.1513C25.4288 38.9284 25.4288 38.9284 25.5081 39.7213C26.1769 39.4767 26.1769 39.4767 26.3225 38.897C26.4901 38.1015 26.517 37.2922 26.5531 36.4819C26.6074 35.9502 26.7332 35.5098 26.9211 35.0112Z" fill="#B8660E"/>
<path d="M36.0264 33.5984C36.1819 33.5984 36.3373 33.5984 36.4974 33.5984C36.5228 34.4938 36.4061 35.2943 36.2125 36.1665C36.1152 36.6084 36.0277 37.034 35.997 37.486C35.9639 37.8923 35.9327 38.12 35.7124 38.4654C35.0315 38.8989 34.1853 39.4074 33.3574 39.4074C33.5792 37.2713 34.5005 35.1243 36.0264 33.5984Z" fill="white"/>
<path d="M42.4644 37.8374C42.798 37.8963 42.798 37.8963 43.0924 37.9944C43.0924 38.098 43.0924 38.2016 43.0924 38.3084C42.7815 38.4638 42.7815 38.4638 42.4644 38.6224C42.4644 38.9851 42.4644 39.3477 42.4644 39.7214C42.8164 39.814 42.8164 39.814 43.2494 39.7214C43.7499 39.2683 44.1289 38.7114 44.5152 38.1612C44.8194 37.8374 44.8194 37.8374 45.2512 37.7883C45.426 37.8126 45.426 37.8126 45.6044 37.8374C45.6044 37.941 45.6044 38.0446 45.6044 38.1514C45.3454 38.255 45.0863 38.3586 44.8194 38.4654C44.8194 38.5172 44.8194 38.569 44.8194 38.6224C45.0267 38.5188 45.2339 38.4152 45.4474 38.3084C45.5251 38.7747 45.5251 38.7747 45.6044 39.2504C46.1294 39.1629 46.5516 39.0382 47.0174 38.7794C46.8366 39.1669 46.6959 39.4149 46.3894 39.7214C45.558 39.8099 45.558 39.8099 45.153 39.4859C45.0948 39.4082 45.0365 39.3305 44.9764 39.2504C44.821 39.4576 44.6656 39.6649 44.5054 39.8784C44.418 39.8428 44.3306 39.8072 44.2405 39.7705C43.734 39.702 43.5208 39.9312 43.0924 40.1924C42.5782 40.2677 42.3831 40.2415 41.9443 39.9569C41.8569 39.8792 41.7695 39.8015 41.6794 39.7214C41.5661 39.8283 41.4527 39.9351 41.336 40.0452C40.8944 40.3494 40.8944 40.3494 40.4724 40.3396C40.1094 40.1924 40.1094 40.1924 39.7954 39.7214C39.7757 39.2995 39.7757 39.2995 39.7954 38.9364C39.2864 38.9914 39.0708 39.0247 38.7258 39.4172C38.6643 39.5176 38.6028 39.618 38.5394 39.7214C38.4876 39.566 38.4357 39.4105 38.3824 39.2504C38.2787 39.1986 38.1751 39.1468 38.0684 39.0934C38.172 38.7307 38.2756 38.3681 38.3824 37.9944C38.486 37.9944 38.5896 37.9944 38.6964 37.9944C38.7482 38.2534 38.8 38.5125 38.8534 38.7794C38.9052 38.7276 38.957 38.6758 39.0104 38.6224C39.272 38.616 39.5338 38.6157 39.7954 38.6224C39.8472 38.4152 39.899 38.2079 39.9524 37.9944C40.056 37.9944 40.1596 37.9944 40.2664 37.9944C40.3182 38.6161 40.37 39.2378 40.4234 39.8784C41.0996 39.7094 41.2464 39.6102 41.6794 39.0934C41.8414 38.7819 41.9989 38.4681 42.1504 38.1514C42.254 38.0478 42.3576 37.9442 42.4644 37.8374Z" fill="#B8660E"/>
<path d="M36.0261 38.6223C36.2334 38.6223 36.4406 38.6223 36.6541 38.6223C36.6541 38.8296 36.6541 39.0368 36.6541 39.2503C36.7578 39.2503 36.8614 39.2503 36.9682 39.2503C37.02 39.4576 37.0718 39.6648 37.1252 39.8783C37.245 39.7747 37.3648 39.6711 37.4882 39.5643C37.9102 39.2503 37.9102 39.2503 38.3812 39.2503C38.6952 39.7213 38.6952 39.7213 38.6363 40.0648C38.5877 40.2056 38.5877 40.2056 38.5382 40.3493C38.2242 40.1923 38.2242 40.1923 38.0672 39.7213C37.7563 39.9286 37.4454 40.1358 37.1252 40.3493C37.2547 40.4789 37.3842 40.6084 37.5177 40.7418C37.9274 41.2368 38.0174 41.6021 37.9795 42.2383C37.864 42.7534 37.6098 43.0798 37.2822 43.4894C36.9211 43.345 36.6996 43.2441 36.4824 42.9153C36.2971 42.4359 36.2728 41.9998 36.242 41.4876C36.2303 41.3038 36.2185 41.1201 36.2064 40.9307C36.1988 40.7907 36.1911 40.6506 36.1831 40.5063C36.0795 40.5063 35.9759 40.5063 35.8691 40.5063C35.921 39.8846 35.9728 39.2629 36.0261 38.6223Z" fill="#B8660E"/>
<path d="M16.0879 37.0522C16.1915 37.0522 16.2951 37.0522 16.4019 37.0522C16.2923 37.5171 16.1505 37.9633 15.9996 38.4162C15.7616 39.1938 15.7347 39.8537 15.7739 40.6633C15.9245 40.7361 15.9245 40.7361 16.0781 40.8105C16.4019 40.9773 16.4019 40.9773 16.5589 41.1343C16.6446 42.0242 16.6691 42.7628 16.0879 43.4893C15.7935 43.4599 15.7935 43.4599 15.4599 43.3323C15.1619 42.753 15.1107 42.2803 15.1263 41.6347C15.1291 41.4815 15.1319 41.3283 15.1348 41.1705C15.1385 41.0549 15.1421 40.9393 15.1459 40.8203C14.7832 40.8721 14.4205 40.9239 14.0469 40.9773C14.0469 40.8737 14.0469 40.77 14.0469 40.6633C14.5909 40.5856 14.5909 40.5856 15.1459 40.5063C15.0844 40.3088 15.0228 40.1112 14.9594 39.9077C14.8546 39.571 14.8546 39.571 14.8319 39.2503C15.0441 39.0184 15.0441 39.0184 15.3029 38.7793C15.4478 38.4346 15.4478 38.4346 15.5482 38.0629C15.7412 37.399 15.7412 37.399 16.0879 37.0522Z" fill="#B8660E"/>
<path d="M33.5147 39.4072C33.5147 39.8782 33.5147 39.8782 33.3185 40.202C33.0708 40.6177 32.909 40.9975 32.7395 41.4482C32.4988 42.0591 32.283 42.568 31.7877 43.0183C31.3658 43.0771 31.3658 43.0771 31.0027 43.0183C30.9509 42.9665 30.8991 42.9146 30.8457 42.8613C30.8457 41.9196 31.1643 41.4736 31.8018 40.7982C32.3383 40.276 32.8903 39.8235 33.5147 39.4072Z" fill="#B8660E"/>
<path d="M36.8129 33.4414C36.8518 34.473 36.7067 35.4149 36.4989 36.4244C36.3434 36.4763 36.188 36.5281 36.0279 36.5814C36.1257 35.5704 36.2854 34.5913 36.4989 33.5984C35.126 34.2041 34.5655 35.8332 34.0255 37.1279C33.7983 37.7696 33.6733 38.3859 33.5974 39.061C33.5023 39.4652 33.3605 39.6173 33.0448 39.8785C32.8011 39.3909 33.0138 38.9572 33.1528 38.4557C33.1819 38.3491 33.2111 38.2425 33.2411 38.1327C33.4717 37.3156 33.7527 36.5515 34.1439 35.7964C34.2361 35.6152 34.2361 35.6152 34.3303 35.4303C35.5451 33.1412 35.5451 33.1412 36.8129 33.4414Z" fill="#B8660E"/>
<path d="M15.6174 40.3494C15.6692 40.453 15.721 40.5566 15.7744 40.6634C15.9811 40.7732 16.1905 40.878 16.4024 40.9774C16.6598 41.2347 16.5924 41.5265 16.5987 41.8801C16.5949 42.5455 16.5155 42.9555 16.0884 43.4894C15.8812 43.4376 15.6739 43.3858 15.4604 43.3324C15.309 42.7211 15.3048 42.2018 15.3623 41.5759C15.3765 41.4118 15.3906 41.2477 15.4052 41.0786C15.4604 40.6634 15.4604 40.6634 15.6174 40.3494Z" fill="#B8660E"/>
<path d="M17.1865 36.5813C17.4191 36.7474 17.4191 36.7474 17.6575 37.0523C17.7109 37.5526 17.7109 37.5526 17.7035 38.163C17.7028 38.2703 17.7021 38.3777 17.7014 38.4883C17.6988 38.8307 17.6929 39.1729 17.6869 39.5153C17.6845 39.7476 17.6824 39.9799 17.6805 40.2123C17.6753 40.7813 17.6671 41.3503 17.6575 41.9193C17.502 41.8675 17.3466 41.8157 17.1865 41.7623C17.1865 40.9852 17.1865 40.208 17.1865 39.4073C16.487 39.8736 16.487 39.8736 15.7734 40.3493C16.0874 39.7213 16.0874 39.7213 16.5683 39.4368C17.0051 39.1051 17.0323 38.9193 17.1257 38.3623C17.1726 37.7688 17.185 37.1765 17.1865 36.5813Z" fill="#B8660E"/>
<path d="M36.8119 40.8206C37.4203 41.0953 37.4203 41.0953 37.5969 41.4486C37.5834 41.6913 37.5593 41.9336 37.5283 42.1747C37.5123 42.303 37.4963 42.4313 37.4798 42.5635C37.4667 42.6619 37.4535 42.7602 37.4399 42.8616C37.2845 42.9134 37.1291 42.9652 36.9689 43.0186C36.8041 42.5241 36.796 42.1726 36.8021 41.6546C36.8035 41.4986 36.805 41.3425 36.8064 41.1818C36.8082 41.0626 36.8101 40.9434 36.8119 40.8206Z" fill="white"/>
<path d="M32.5732 40.5063C32.625 40.61 32.6768 40.7136 32.7302 40.8204C32.5848 41.1834 32.5848 41.1834 32.3671 41.6054C32.2965 41.7446 32.2258 41.8838 32.1531 42.0273C31.9452 42.3904 31.9452 42.3904 31.6312 42.7044C31.4757 42.7044 31.3203 42.7044 31.1602 42.7044C31.2419 42.0549 31.4228 41.7287 31.8667 41.2521C31.9654 41.1444 32.0642 41.0368 32.1659 40.9258C32.3004 40.7848 32.4354 40.6441 32.5732 40.5063Z" fill="white"/>
<path d="M15.6167 40.8206C16.0877 40.9776 16.0877 40.9776 16.4017 41.4486C16.4547 42.0704 16.4165 42.4843 16.0877 43.0186C15.9841 43.0186 15.8805 43.0186 15.7737 43.0186C15.5567 42.5845 15.6018 42.2263 15.6069 41.7429C15.6083 41.5709 15.6097 41.3989 15.6112 41.2216C15.613 41.0893 15.6148 40.9569 15.6167 40.8206Z" fill="white"/>
<path d="M36.4983 33.4412C36.602 33.4412 36.7056 33.4412 36.8124 33.4412C36.8513 34.4727 36.7062 35.4146 36.4983 36.4242C36.3429 36.476 36.1875 36.5278 36.0273 36.5812C36.1315 35.522 36.2972 34.4861 36.4983 33.4412Z" fill="#B8660E"/>
<path d="M37.2826 37.0522C37.3862 37.0522 37.4898 37.0522 37.5966 37.0522C37.4411 37.8115 37.2894 38.54 36.9686 39.2503C36.865 39.2503 36.7614 39.2503 36.6546 39.2503C36.6546 38.9912 36.6546 38.7322 36.6546 38.4653C36.4992 38.4134 36.3437 38.3616 36.1836 38.3083C36.3908 38.3083 36.5981 38.3083 36.8116 38.3083C36.8407 38.1285 36.8407 38.1285 36.8705 37.9452C36.9686 37.5233 36.9686 37.5233 37.2826 37.0522Z" fill="#B8660E"/>
<path d="M9.17954 35.3252C9.33497 35.3252 9.4904 35.3252 9.65054 35.3252C9.45136 36.2547 9.15761 36.9989 8.70853 37.8372C8.60491 37.8372 8.50129 37.8372 8.39453 37.8372C8.42489 37.748 8.45525 37.6587 8.48652 37.5668C8.73701 36.824 8.97057 36.0807 9.17954 35.3252Z" fill="#B8660E"/>
<path d="M36.0261 38.6223C36.2334 38.6223 36.4406 38.6223 36.6541 38.6223C36.5505 39.244 36.4469 39.8658 36.3401 40.5063C36.1847 40.5063 36.0293 40.5063 35.8691 40.5063C35.921 39.8846 35.9728 39.2629 36.0261 38.6223Z" fill="white"/>
<path d="M17.1866 35.4823C16.6956 35.7406 16.1967 35.9403 15.6755 36.1299C15.5245 36.1854 15.3735 36.2408 15.218 36.298C14.8316 36.4243 14.8316 36.4243 14.5176 36.4243C14.5176 36.3207 14.5176 36.2171 14.5176 36.1103C14.8141 35.9737 15.112 35.8402 15.4105 35.708C15.5763 35.6333 15.742 35.5586 15.9128 35.4817C16.4277 35.317 16.6778 35.3247 17.1866 35.4823Z" fill="#B8660E"/>
<path d="M16.087 37.0522C16.1906 37.0522 16.2942 37.0522 16.401 37.0522C16.244 37.6803 16.087 38.3083 15.93 38.9363C15.7746 38.8845 15.6191 38.8326 15.459 38.7793C15.5759 37.5633 15.5759 37.5633 16.087 37.0522Z" fill="#B8660E"/>
<path d="M32.5732 40.9773C32.763 41.5333 32.7356 41.5937 32.4652 42.1744C32.1963 42.6121 31.9783 42.8563 31.4742 43.0183C31.3705 42.9147 31.2669 42.8111 31.1602 42.7043C31.2767 42.6525 31.3933 42.6007 31.5134 42.5473C32.0947 42.1246 32.297 41.6269 32.5732 40.9773Z" fill="#B8660E"/>
<path d="M38.3824 37.9944C38.486 37.9944 38.5896 37.9944 38.6964 37.9944C38.719 38.1174 38.7417 38.2405 38.7651 38.3673C38.8342 38.7738 38.8342 38.7738 39.0104 39.0934C38.8549 39.3006 38.6995 39.5079 38.5394 39.7214C38.4876 39.566 38.4357 39.4105 38.3824 39.2504C38.2787 39.1986 38.1751 39.1468 38.0684 39.0934C38.172 38.7307 38.2756 38.368 38.3824 37.9944Z" fill="#B8660E"/>
<path d="M38.381 39.2505C38.695 39.7215 38.695 39.7215 38.6361 40.0649C38.6038 40.1588 38.5714 40.2527 38.538 40.3495C38.224 40.1925 38.224 40.1925 38.067 39.7215C37.6784 39.9546 37.6784 39.9546 37.282 40.1925C37.2302 40.0889 37.1784 39.9853 37.125 39.8785C37.8511 39.2505 37.8511 39.2505 38.381 39.2505Z" fill="#B8660E"/>
<path d="M26.9195 35.0112C27.0231 35.0112 27.1267 35.0112 27.2335 35.0112C27.1817 35.5293 27.1299 36.0474 27.0765 36.5812C26.9729 36.5812 26.8693 36.5812 26.7625 36.5812C26.7429 35.3645 26.7429 35.3645 26.9195 35.0112Z" fill="#B8660E"/>
<path d="M15.6157 40.3494C15.6675 40.453 15.7193 40.5566 15.7727 40.6634C16.0893 40.8413 16.0893 40.8413 16.4007 40.9774C16.4007 41.1328 16.4007 41.2882 16.4007 41.4484C16.2971 41.3966 16.1935 41.3448 16.0867 41.2914C16.0867 41.1878 16.0867 41.0841 16.0867 40.9774C15.9831 40.9774 15.8795 40.9774 15.7727 40.9774C15.7209 41.34 15.6691 41.7027 15.6157 42.0764C15.5639 42.0764 15.5121 42.0764 15.4587 42.0764C15.4545 41.8474 15.4514 41.6185 15.4489 41.3895C15.4471 41.262 15.4452 41.1345 15.4434 41.0031C15.4587 40.6634 15.4587 40.6634 15.6157 40.3494Z" fill="#B8660E"/>
<path d="M28.1776 37.6804C28.2294 37.8359 28.2812 37.9913 28.3346 38.1514C28.1792 38.3846 28.1792 38.3846 28.0206 38.6224C27.9601 38.8823 27.9063 39.144 27.8636 39.4074C27.7082 39.3038 27.5527 39.2002 27.3926 39.0934C27.5887 38.5503 27.8126 38.1284 28.1776 37.6804Z" fill="#B8660E"/>
<path d="M27.8628 40.0354C28.1216 40.5012 28.2463 40.9234 28.3338 41.4484C28.1784 41.3966 28.023 41.3448 27.8628 41.2914C27.6764 40.7321 27.6764 40.7321 27.5488 40.1924C27.6524 40.1406 27.7561 40.0888 27.8628 40.0354Z" fill="#B8660E"/>
<path d="M25.1932 38.1514C25.245 38.1514 25.2968 38.1514 25.3502 38.1514C25.3617 38.3186 25.3617 38.3186 25.3735 38.4893C25.3852 38.6336 25.397 38.7779 25.4091 38.9266C25.42 39.0705 25.4309 39.2144 25.4422 39.3626C25.4636 39.481 25.4851 39.5994 25.5072 39.7214C25.6108 39.7732 25.7144 39.825 25.8212 39.8784C25.6658 39.9302 25.5103 39.982 25.3502 40.0354C24.9992 39.5089 25.009 39.4219 25.0951 38.8284C25.1125 38.7015 25.1299 38.5746 25.1478 38.4439C25.1628 38.3474 25.1778 38.2508 25.1932 38.1514Z" fill="#B8660E"/>
<path d="M15.46 42.0764C15.6893 42.4921 15.774 42.6879 15.774 43.1754C15.8776 43.1754 15.9812 43.1754 16.088 43.1754C16.088 43.279 16.088 43.3827 16.088 43.4894C15.8807 43.4376 15.6735 43.3858 15.46 43.3324C15.3344 42.8164 15.2878 42.5929 15.46 42.0764Z" fill="#B8660E"/>
<path d="M37.2835 37.0522C37.3871 37.0522 37.4907 37.0522 37.5975 37.0522C37.4939 37.5185 37.3903 37.9848 37.2835 38.4653C37.1281 38.3616 36.9726 38.258 36.8125 38.1513C37.1069 37.2289 37.1069 37.2289 37.2835 37.0522Z" fill="#B8660E"/>
<path d="M24.88 38.1514C24.9836 38.1514 25.0872 38.1514 25.194 38.1514C25.194 38.4104 25.194 38.6695 25.194 38.9364C25.0903 38.8846 24.9867 38.8328 24.88 38.7794C24.7245 38.9866 24.5691 39.1939 24.409 39.4074C24.3571 39.3038 24.3053 39.2001 24.252 39.0934C24.452 38.7734 24.6618 38.4593 24.88 38.1514Z" fill="#B8660E"/>
<path d="M46.7018 38.7795C46.8054 38.7795 46.909 38.7795 47.0158 38.7795C46.8511 39.1912 46.7568 39.3752 46.3681 39.6038C46.271 39.6427 46.1739 39.6815 46.0738 39.7215C45.9701 39.6179 45.8665 39.5143 45.7598 39.4075C45.8861 39.3331 46.0123 39.2586 46.1425 39.1819C46.5208 38.9728 46.5208 38.9728 46.7018 38.7795Z" fill="#B8660E"/>
<path d="M42.4651 37.8374C42.789 37.9061 42.789 37.9061 43.0932 37.9944C43.0932 38.098 43.0932 38.2016 43.0932 38.3084C42.7305 38.412 42.3678 38.5156 41.9941 38.6224C42.2885 38.014 42.2885 38.014 42.4651 37.8374Z" fill="#B8660E"/>
</svg>
