<svg width="50" height="46" viewBox="0 0 50 46" fill="none" xmlns="http://www.w3.org/2000/svg">
<path d="M18.9652 33.1274C19.0688 33.1274 19.1725 33.1274 19.2792 33.1274C19.1222 34.2937 19.1222 34.2937 18.9652 34.8545C19.1207 34.8545 19.2761 34.8545 19.4362 34.8545C19.3844 34.9581 19.3326 35.0617 19.2792 35.1685C19.1238 35.1167 18.9684 35.0648 18.8082 35.0115C18.791 35.1011 18.7738 35.1908 18.7561 35.2831C18.604 36.061 18.4353 36.8316 18.2489 37.602C17.9401 38.9434 17.8539 40.2236 17.8466 41.5957C17.8458 41.7129 17.8451 41.8302 17.8443 41.951C17.8459 42.4528 17.8634 42.8531 18.0232 43.3325C18.6487 43.124 18.7018 42.8799 19.01 42.3059C19.1062 42.1272 19.2025 41.9485 19.3016 41.7644C19.3511 41.6705 19.4006 41.5767 19.4516 41.48C19.6013 41.1968 19.7536 40.9151 19.9063 40.6335C20.374 39.7571 20.7579 38.9545 21.0062 37.9945C21.1099 37.9945 21.2135 37.9945 21.3202 37.9945C21.3202 38.668 21.3202 39.3416 21.3202 40.0355C22.0383 39.7254 22.4614 39.4381 22.8903 38.7795C23.0874 38.2804 23.0874 38.2804 23.2043 37.8375C23.3079 37.8375 23.4115 37.8375 23.5183 37.8375C23.4665 38.252 23.4146 38.6665 23.3613 39.0935C23.4552 38.9381 23.5491 38.7826 23.6458 38.6225C23.7592 38.4671 23.8725 38.3116 23.9893 38.1515C24.1447 38.1515 24.3001 38.1515 24.4603 38.1515C24.5121 38.6696 24.5639 39.1877 24.6173 39.7215C25.2861 39.4769 25.2861 39.4769 25.4317 38.8972C25.5993 38.1017 25.6262 37.2925 25.6623 36.4821C25.7166 35.9505 25.8424 35.5101 26.0303 35.0115C26.1339 35.0115 26.2375 35.0115 26.3443 35.0115C26.2396 36.5815 26.1349 38.1515 26.0303 39.7215C26.1241 39.54 26.1241 39.54 26.2198 39.3548C26.303 39.1973 26.3861 39.0398 26.4718 38.8776C26.5948 38.6427 26.5948 38.6427 26.7202 38.4029C26.9723 37.9945 26.9723 37.9945 27.4433 37.6805C27.3638 38.021 27.2863 38.3084 27.1293 38.6225C27.0403 39.6017 27.1933 40.5043 27.4433 41.4485C27.2879 41.3967 27.1324 41.3449 26.9723 41.2915C26.7602 40.781 26.6437 40.2572 26.5013 39.7215C26.294 40.2396 26.0868 40.7577 25.8733 41.2915C25.7697 41.2915 25.666 41.2915 25.5593 41.2915C25.5075 40.7734 25.4557 40.2553 25.4023 39.7215C25.2468 39.8769 25.2468 39.8769 25.0883 40.0355C24.6761 39.9766 24.6761 39.9766 24.3033 39.8785C24.1996 39.5158 24.096 39.1532 23.9893 38.7795C23.782 39.1422 23.5748 39.5048 23.3613 39.8785C23.2058 39.8785 23.0504 39.8785 22.8903 39.8785C22.8384 39.7749 22.7866 39.6713 22.7333 39.5645C22.6199 39.694 22.5066 39.8236 22.3898 39.957C21.9482 40.3495 21.9482 40.3495 21.5067 40.3986C21.3933 40.3824 21.28 40.3662 21.1632 40.3495C21.1114 40.1941 21.0596 40.0386 21.0062 39.8785C20.6102 40.2375 20.3763 40.5996 20.128 41.0713C20.0166 41.2795 20.0166 41.2795 19.9029 41.4918C19.7485 41.784 19.5944 42.0763 19.4405 42.3688C19.3291 42.5766 19.3291 42.5766 19.2154 42.7886C19.1486 42.9155 19.0817 43.0424 19.0127 43.1731C18.8082 43.4895 18.8082 43.4895 18.3372 43.8035C17.8724 43.7472 17.7333 43.6706 17.3952 43.3325C16.5986 40.8861 17.443 37.542 18.1802 35.1685C17.7657 35.2203 17.3512 35.2721 16.9242 35.3255C16.8724 37.5015 16.8206 39.6775 16.7672 41.9195C16.5341 41.8418 16.5341 41.8418 16.2962 41.7625C16.2962 40.9854 16.2962 40.2082 16.2962 39.4075C16.0922 39.5565 15.8882 39.7054 15.678 39.8589C15.5633 39.9427 15.4485 40.0265 15.3303 40.1128C15.0228 40.3307 15.0228 40.3307 14.8832 40.6635C14.9836 40.7121 15.0839 40.7607 15.1874 40.8107C15.5112 40.9775 15.5112 40.9775 15.6682 41.1345C15.7539 42.0244 15.7784 42.763 15.1972 43.4895C14.9028 43.4601 14.9028 43.4601 14.5692 43.3325C14.2712 42.7532 14.22 42.2805 14.2356 41.635C14.2384 41.4818 14.2412 41.3285 14.2441 41.1707C14.2478 41.0551 14.2514 40.9396 14.2552 40.8205C13.7112 40.8982 13.7112 40.8982 13.1562 40.9775C13.1562 40.8739 13.1562 40.7703 13.1562 40.6635C13.5188 40.6117 13.8815 40.5599 14.2552 40.5065C14.2034 40.2475 14.1516 39.9884 14.0982 39.7215C13.9525 39.7312 13.8067 39.7409 13.6566 39.7509C13.1562 39.7215 13.1562 39.7215 12.8618 39.486C12.8035 39.4083 12.7452 39.3306 12.6852 39.2505C12.6172 39.3541 12.5492 39.4577 12.4791 39.5645C12.348 39.7199 12.348 39.7199 12.2142 39.8785C12.0587 39.8785 11.9033 39.8785 11.7432 39.8785C11.7432 39.5676 11.7432 39.2568 11.7432 38.9365C11.3618 38.9154 11.3618 38.9154 10.9581 39.0935C10.741 39.4947 10.6099 39.9113 10.4871 40.3495C10.3317 40.2977 10.1763 40.2459 10.0161 40.1925C9.96447 40.2876 9.91287 40.3828 9.85977 40.4808C9.05239 41.9029 7.98591 43.4896 6.40508 44.1175C5.90883 44.2365 5.6748 44.2124 5.14907 44.1175C4.37633 43.412 4.05027 42.6352 4.00283 41.6006C3.99975 41.3668 3.99925 41.1329 4.00099 40.899C4.00188 40.7746 4.00277 40.6502 4.00368 40.522C4.05178 38.1552 4.72162 35.5079 6.40508 33.7554C6.88925 33.3582 7.13202 33.2904 7.75922 33.2256C8.2891 33.2844 8.2891 33.2844 8.55281 33.4709C9.00316 34.0891 8.84993 34.9167 8.7601 35.6395C8.56134 36.35 8.3315 37.0329 7.97509 37.6805C7.81966 37.7323 7.66423 37.7841 7.50409 37.8375C7.53445 37.7482 7.5648 37.659 7.59608 37.567C7.72431 37.1868 7.84985 36.8057 7.97509 36.4245C8.03662 36.2399 8.09814 36.0553 8.16153 35.8652C8.31089 35.2332 8.32259 34.717 8.2891 34.0695C8.1179 33.8686 8.1179 33.8686 7.71015 33.8339C7.05165 33.9333 6.87884 34.1249 6.48481 34.6416C5.23442 36.595 4.63322 38.8473 4.60938 41.1541C4.60778 41.2619 4.60619 41.3696 4.60455 41.4806C4.61818 42.2635 4.78149 42.8111 5.14907 43.4895C5.68243 43.6987 6.01311 43.7377 6.55472 43.5276C7.92718 42.7549 8.77113 41.4983 9.53527 40.1631C9.59647 40.0568 9.65767 39.9504 9.72077 39.8409C10.0596 39.2255 10.2605 38.7052 10.3301 37.9945C10.4338 37.9945 10.5374 37.9945 10.6441 37.9945C10.7219 38.3831 10.7219 38.3831 10.8011 38.7795C11.2156 38.7795 11.6301 38.7795 12.0572 38.7795C12.0863 38.6338 12.0863 38.6338 12.116 38.4851C12.2142 38.1515 12.2142 38.1515 12.5282 37.8375C12.9403 37.8179 12.9403 37.8179 13.3132 37.8375C13.3132 37.9411 13.3132 38.0447 13.3132 38.1515C13.0541 38.2551 12.7951 38.3587 12.5282 38.4655C12.5282 38.5173 12.5282 38.5691 12.5282 38.6225C12.7354 38.5189 12.9426 38.4153 13.1562 38.3085C13.2339 38.7748 13.2339 38.7748 13.3132 39.2505C13.9303 39.1603 13.9303 39.1603 14.4122 38.7795C14.5338 38.4214 14.6315 38.0603 14.7299 37.6952C14.9199 37.2878 15.099 37.2085 15.5112 37.0525C15.3659 37.6631 15.1735 38.2555 14.9807 38.8525C14.8804 39.2621 14.8659 39.6156 14.8832 40.0355C15.4602 39.7687 15.8008 39.4774 16.1392 38.9365C16.3541 37.8588 16.3174 36.734 16.2962 35.6395C16.0861 35.7047 16.0861 35.7047 15.8718 35.7713C15.688 35.8282 15.5043 35.8851 15.3149 35.9437C15.1328 36.0001 14.9506 36.0566 14.763 36.1148C14.3853 36.2283 14.0108 36.3343 13.6272 36.4245C13.6272 36.3209 13.6272 36.2172 13.6272 36.1105C15.5874 35.2382 15.5874 35.2382 16.6102 35.1685C16.7138 34.8576 16.8174 34.5467 16.9242 34.2265C17.0796 34.3042 17.0796 34.3042 17.2382 34.3835C17.2382 34.5389 17.2382 34.6943 17.2382 34.8545C17.7822 34.7767 17.7822 34.7767 18.3372 34.6975C18.5445 34.1794 18.7517 33.6612 18.9652 33.1274Z" fill="white"/>
<path d="M35.9212 33.4414C35.9627 34.5214 35.8036 35.5211 35.6072 36.5814C35.5622 36.8313 35.5622 36.8313 35.5164 37.0862C35.4429 37.4938 35.3685 37.9012 35.2932 38.3085C35.5004 38.3085 35.7076 38.3085 35.9212 38.3085C35.9406 38.1887 35.96 38.0688 35.98 37.9454C36.0782 37.5235 36.0782 37.5235 36.3922 37.0525C36.4958 37.0525 36.5994 37.0525 36.7062 37.0525C36.6576 37.2815 36.6084 37.5105 36.559 37.7393C36.5317 37.8668 36.5043 37.9943 36.4762 38.1257C36.3922 38.4655 36.3922 38.4655 36.2352 38.7795C36.2288 39.1458 36.2284 39.5122 36.2352 39.8785C37.0557 39.29 37.0557 39.29 37.4814 38.4066C37.4846 38.2706 37.4878 38.1346 37.4912 37.9945C37.5948 37.9945 37.6984 37.9945 37.8052 37.9945C37.8829 38.383 37.8829 38.383 37.9622 38.7795C38.014 38.7277 38.0658 38.6758 38.1192 38.6225C38.3808 38.6161 38.6426 38.6158 38.9042 38.6225C38.956 38.4152 39.0078 38.208 39.0612 37.9945C39.1648 37.9945 39.2684 37.9945 39.3752 37.9945C39.4529 38.9271 39.4529 38.9271 39.5322 39.8785C40.2084 39.7094 40.3552 39.6103 40.7882 39.0935C40.9502 38.782 41.1077 38.4682 41.2592 38.1515C41.3628 38.0478 41.4664 37.9442 41.5732 37.8375C41.9068 37.8963 41.9068 37.8963 42.2012 37.9945C42.2012 38.0981 42.2012 38.2017 42.2012 38.3085C41.8904 38.4639 41.8904 38.4639 41.5732 38.6225C41.5732 38.9851 41.5732 39.3478 41.5732 39.7215C41.9252 39.8141 41.9252 39.8141 42.3582 39.7215C42.8587 39.2683 43.2377 38.7115 43.624 38.1613C43.9282 37.8375 43.9282 37.8375 44.36 37.7884C44.4766 37.8046 44.5931 37.8208 44.7132 37.8375C44.7132 37.9411 44.7132 38.0447 44.7132 38.1515C44.4542 38.2551 44.1951 38.3587 43.9282 38.4655C43.9282 38.5173 43.9282 38.5691 43.9282 38.6225C44.1355 38.5188 44.3427 38.4152 44.5562 38.3085C44.6339 38.7748 44.6339 38.7748 44.7132 39.2505C45.2382 39.163 45.6604 39.0382 46.1262 38.7795C45.9454 39.1669 45.8047 39.415 45.4982 39.7215C44.6668 39.8099 44.6668 39.8099 44.2619 39.486C44.2036 39.4083 44.1453 39.3305 44.0852 39.2505C43.9298 39.4577 43.7744 39.665 43.6142 39.8785C43.5268 39.8429 43.4394 39.8072 43.3493 39.7705C42.8428 39.7021 42.6296 39.9313 42.2012 40.1925C41.687 40.2677 41.4919 40.2416 41.0531 39.957C40.9657 39.8793 40.8783 39.8015 40.7882 39.7215C40.6749 39.8283 40.5615 39.9352 40.4448 40.0453C40.0032 40.3495 40.0032 40.3495 39.5813 40.3397C39.2182 40.1925 39.2182 40.1925 38.9042 39.7215C38.8846 39.2995 38.8846 39.2995 38.9042 38.9365C38.5228 38.9154 38.5228 38.9154 38.1192 39.0935C37.9021 39.4946 37.771 39.9112 37.6482 40.3495C37.3342 40.1925 37.3342 40.1925 37.1772 39.7215C36.8663 39.9287 36.5554 40.136 36.2352 40.3495C36.3647 40.479 36.4942 40.6085 36.6277 40.742C37.0374 41.237 37.1274 41.6023 37.0895 42.2384C36.974 42.7536 36.7198 43.08 36.3922 43.4895C36.0244 43.3424 35.8073 43.2414 35.5875 42.9057C35.4184 42.4648 35.4193 42.1155 35.4305 41.6447C35.4334 41.4901 35.4362 41.3355 35.4391 41.1762C35.4428 41.0588 35.4464 40.9414 35.4502 40.8205C35.2947 40.8982 35.2947 40.8982 35.1361 40.9775C34.7828 42.2964 34.7414 43.7027 34.6651 45.0595C34.5615 45.0595 34.4579 45.0595 34.3511 45.0595C34.3096 43.7069 34.3754 42.3829 34.4983 41.0364C34.512 40.8857 34.5256 40.735 34.5397 40.5797C34.5986 39.9645 34.6587 39.3769 34.8221 38.7795C34.4641 38.9436 34.1082 39.1107 33.7526 39.2799C33.6517 39.3258 33.5508 39.3716 33.4469 39.4188C32.4707 39.8892 32.2046 40.4716 31.8489 41.4485C31.6082 42.0594 31.3924 42.5682 30.8971 43.0185C30.4752 43.0774 30.4752 43.0774 30.1121 43.0185C30.0603 42.9667 30.0085 42.9149 29.9551 42.8615C29.9551 41.7701 30.4708 41.2609 31.2111 40.5065C31.42 40.3073 31.42 40.3073 31.6331 40.1042C32.1115 39.5351 32.2249 38.8056 32.3971 38.1004C32.5985 37.277 32.8631 36.5474 33.2521 35.7964C33.3137 35.6756 33.3752 35.5548 33.4386 35.4303C34.6534 33.1412 34.6534 33.1412 35.9212 33.4414Z" fill="white"/>
<path d="M8.2891 33.2843C8.65782 33.545 8.74862 33.695 8.83369 34.1417C8.84743 35.4227 8.59764 36.5492 7.97509 37.6803C7.81966 37.7321 7.66423 37.7839 7.50409 37.8373C7.53445 37.7481 7.5648 37.6588 7.59608 37.5669C7.72431 37.1866 7.84985 36.8056 7.97509 36.4243C8.03662 36.2397 8.09814 36.0552 8.16153 35.865C8.31089 35.2331 8.32259 34.7168 8.2891 34.0693C8.1179 33.8685 8.1179 33.8685 7.71015 33.8338C7.05165 33.9332 6.87884 34.1247 6.48481 34.6415C5.23442 36.5948 4.63322 38.8472 4.60938 41.154C4.60778 41.2617 4.60619 41.3694 4.60455 41.4804C4.61818 42.2633 4.78149 42.8109 5.14907 43.4894C5.68243 43.6985 6.01311 43.7376 6.55472 43.5274C7.92718 42.7547 8.77113 41.4982 9.53527 40.1629C9.59647 40.0566 9.65767 39.9503 9.72077 39.8407C10.0596 39.2253 10.2605 38.705 10.3301 37.9943C10.4338 37.9943 10.5374 37.9943 10.6441 37.9943C10.7219 38.3829 10.7219 38.3829 10.8011 38.7793C11.2156 38.7793 11.6301 38.7793 12.0572 38.7793C12.0863 38.6336 12.0863 38.6336 12.116 38.485C12.2142 38.1513 12.2142 38.1513 12.5282 37.8373C12.9403 37.8177 12.9403 37.8177 13.3132 37.8373C13.3132 37.9409 13.3132 38.0446 13.3132 38.1513C13.0541 38.255 12.7951 38.3586 12.5282 38.4653C12.5282 38.5171 12.5282 38.569 12.5282 38.6223C12.7354 38.5187 12.9426 38.4151 13.1562 38.3083C13.2339 38.7746 13.2339 38.7746 13.3132 39.2503C13.5722 39.3022 13.8313 39.354 14.0982 39.4073C14.0982 39.511 14.0982 39.6146 14.0982 39.7213C13.2286 39.7793 13.2286 39.7793 12.8618 39.4858C12.8035 39.4081 12.7452 39.3304 12.6852 39.2503C12.6172 39.354 12.5492 39.4576 12.4791 39.5643C12.348 39.7198 12.348 39.7198 12.2142 39.8783C12.0587 39.8783 11.9033 39.8783 11.7432 39.8783C11.7432 39.5675 11.7432 39.2566 11.7432 38.9363C11.3618 38.9152 11.3618 38.9152 10.9581 39.0933C10.741 39.4945 10.6099 39.9111 10.4871 40.3494C10.3317 40.2975 10.1763 40.2457 10.0161 40.1924C9.96447 40.2875 9.91287 40.3826 9.85977 40.4806C9.05239 41.9027 7.98591 43.4894 6.40508 44.1174C5.90883 44.2364 5.6748 44.2122 5.14907 44.1174C4.37633 43.4118 4.05027 42.6351 4.00283 41.6005C3.99975 41.3666 3.99925 41.1327 4.00099 40.8989C4.00188 40.7744 4.00277 40.65 4.00368 40.5218C4.05178 38.1551 4.72162 35.5077 6.40508 33.7553C7.0187 33.2518 7.50396 33.197 8.2891 33.2843Z" fill="white"/>
<path d="M26.0305 35.0112C26.1341 35.0112 26.2377 35.0112 26.3445 35.0112C26.2398 36.5812 26.1351 38.1513 26.0305 39.7213C26.093 39.6002 26.1556 39.4792 26.22 39.3545C26.3032 39.1971 26.3863 39.0396 26.472 38.8774C26.554 38.7207 26.636 38.5641 26.7204 38.4027C26.9725 37.9943 26.9725 37.9943 27.4435 37.6803C27.364 38.0208 27.2865 38.3082 27.1295 38.6223C27.0405 39.6015 27.1935 40.5041 27.4435 41.4483C27.2103 41.3706 27.2103 41.3706 26.9725 41.2913C26.7604 40.7808 26.6439 40.2569 26.5015 39.7213C26.1906 40.4984 26.1906 40.4984 25.8735 41.2913C25.7699 41.2913 25.6662 41.2913 25.5595 41.2913C25.5077 40.7732 25.4559 40.2551 25.4025 39.7213C25.2989 39.8249 25.1952 39.9285 25.0885 40.0353C24.6763 39.9764 24.6763 39.9764 24.3035 39.8783C24.1998 39.5156 24.0962 39.1529 23.9895 38.7793C23.7822 39.1419 23.575 39.5046 23.3615 39.8783C23.206 39.8783 23.0506 39.8783 22.8905 39.8783C22.8127 39.7228 22.8127 39.7228 22.7335 39.5643C22.6201 39.6938 22.5068 39.8233 22.39 39.9568C21.9484 40.3493 21.9484 40.3493 21.5069 40.3983C21.3935 40.3822 21.2802 40.366 21.1634 40.3493C21.1116 40.1938 21.0598 40.0384 21.0064 39.8783C20.6104 40.2372 20.3765 40.5994 20.1282 41.0711C20.0539 41.2099 19.9797 41.3486 19.9031 41.4915C19.7487 41.7837 19.5946 42.0761 19.4407 42.3685C19.3293 42.5763 19.3293 42.5763 19.2156 42.7883C19.1487 42.9152 19.0819 43.0421 19.0129 43.1729C18.8084 43.4893 18.8084 43.4893 18.3374 43.8033C17.8726 43.747 17.7335 43.6704 17.3954 43.3323C17.1766 42.6667 17.2084 41.9944 17.209 41.3011C17.2089 41.1691 17.2088 41.0371 17.2087 40.901C17.2179 39.8027 17.3356 38.7585 17.5524 37.6803C17.7078 37.6284 17.8633 37.5766 18.0234 37.5233C18.0121 37.685 18.0007 37.8467 17.9891 38.0133C17.9081 39.2304 17.85 40.4441 17.8468 41.6642C17.8461 41.777 17.8454 41.8898 17.8446 42.006C17.846 42.4914 17.8687 42.8683 18.0234 43.3323C18.6489 43.1238 18.702 42.8797 19.0102 42.3057C19.1064 42.127 19.2027 41.9483 19.3018 41.7641C19.3513 41.6703 19.4008 41.5765 19.4518 41.4798C19.6015 41.1965 19.7538 40.9148 19.9065 40.6332C20.3742 39.7569 20.7581 38.9542 21.0064 37.9943C21.1101 37.9943 21.2137 37.9943 21.3204 37.9943C21.3204 38.6678 21.3204 39.3413 21.3204 40.0353C22.0385 39.7252 22.4616 39.4378 22.8905 38.7793C23.0876 38.2801 23.0876 38.2801 23.2045 37.8373C23.3081 37.8373 23.4117 37.8373 23.5185 37.8373C23.4666 38.2517 23.4148 38.6662 23.3615 39.0933C23.4554 38.9378 23.5493 38.7824 23.646 38.6223C23.7594 38.4668 23.8727 38.3114 23.9895 38.1513C24.1449 38.1513 24.3003 38.1513 24.4605 38.1513C24.5382 38.9284 24.5382 38.9284 24.6175 39.7213C25.2863 39.4767 25.2863 39.4767 25.4319 38.897C25.5995 38.1015 25.6264 37.2922 25.6625 36.4819C25.7168 35.9502 25.8426 35.5098 26.0305 35.0112Z" fill="white"/>
<path d="M35.1358 33.5984C35.2913 33.5984 35.4467 33.5984 35.6068 33.5984C35.6322 34.4938 35.5155 35.2943 35.3219 36.1665C35.2246 36.6084 35.1371 37.034 35.1064 37.486C35.0733 37.8923 35.0421 38.12 34.8218 38.4654C34.1409 38.8989 33.2947 39.4074 32.4668 39.4074C32.6886 37.2713 33.6099 35.1243 35.1358 33.5984Z" fill="#B8660E"/>
<path d="M41.5737 37.8374C41.9073 37.8963 41.9073 37.8963 42.2017 37.9944C42.2017 38.098 42.2017 38.2016 42.2017 38.3084C41.8908 38.4638 41.8908 38.4638 41.5737 38.6224C41.5737 38.9851 41.5737 39.3477 41.5737 39.7214C41.9257 39.814 41.9257 39.814 42.3587 39.7214C42.8592 39.2683 43.2382 38.7114 43.6245 38.1612C43.9287 37.8374 43.9287 37.8374 44.3605 37.7883C44.5353 37.8126 44.5353 37.8126 44.7137 37.8374C44.7137 37.941 44.7137 38.0446 44.7137 38.1514C44.4547 38.255 44.1956 38.3586 43.9287 38.4654C43.9287 38.5172 43.9287 38.569 43.9287 38.6224C44.136 38.5188 44.3432 38.4152 44.5567 38.3084C44.6344 38.7747 44.6344 38.7747 44.7137 39.2504C45.2387 39.1629 45.6609 39.0382 46.1267 38.7794C45.9459 39.1669 45.8052 39.4149 45.4987 39.7214C44.6673 39.8099 44.6673 39.8099 44.2623 39.4859C44.2041 39.4082 44.1458 39.3305 44.0857 39.2504C43.9303 39.4576 43.7749 39.6649 43.6147 39.8784C43.5273 39.8428 43.4399 39.8072 43.3498 39.7705C42.8433 39.702 42.6301 39.9312 42.2017 40.1924C41.6875 40.2677 41.4924 40.2415 41.0536 39.9569C40.9662 39.8792 40.8788 39.8015 40.7887 39.7214C40.6754 39.8283 40.562 39.9351 40.4453 40.0452C40.0037 40.3494 40.0037 40.3494 39.5817 40.3396C39.2187 40.1924 39.2187 40.1924 38.9047 39.7214C38.885 39.2995 38.885 39.2995 38.9047 38.9364C38.3957 38.9914 38.1801 39.0247 37.8351 39.4172C37.7736 39.5176 37.7121 39.618 37.6487 39.7214C37.5969 39.566 37.545 39.4105 37.4917 39.2504C37.388 39.1986 37.2844 39.1468 37.1777 39.0934C37.2813 38.7307 37.3849 38.3681 37.4917 37.9944C37.5953 37.9944 37.6989 37.9944 37.8057 37.9944C37.8575 38.2534 37.9093 38.5125 37.9627 38.7794C38.0145 38.7276 38.0663 38.6758 38.1197 38.6224C38.3813 38.616 38.6431 38.6157 38.9047 38.6224C38.9565 38.4152 39.0083 38.2079 39.0617 37.9944C39.1653 37.9944 39.2689 37.9944 39.3757 37.9944C39.4275 38.6161 39.4793 39.2378 39.5327 39.8784C40.2089 39.7094 40.3557 39.6102 40.7887 39.0934C40.9507 38.7819 41.1082 38.4681 41.2597 38.1514C41.3633 38.0478 41.4669 37.9442 41.5737 37.8374Z" fill="white"/>
<path d="M35.1355 38.6223C35.3428 38.6223 35.55 38.6223 35.7635 38.6223C35.7635 38.8296 35.7635 39.0368 35.7635 39.2503C35.8672 39.2503 35.9708 39.2503 36.0776 39.2503C36.1294 39.4576 36.1812 39.6648 36.2346 39.8783C36.3544 39.7747 36.4742 39.6711 36.5976 39.5643C37.0196 39.2503 37.0196 39.2503 37.4906 39.2503C37.8046 39.7213 37.8046 39.7213 37.7457 40.0648C37.6971 40.2056 37.6971 40.2056 37.6476 40.3493C37.3336 40.1923 37.3336 40.1923 37.1766 39.7213C36.8657 39.9286 36.5548 40.1358 36.2346 40.3493C36.3641 40.4789 36.4936 40.6084 36.6271 40.7418C37.0368 41.2368 37.1268 41.6021 37.0889 42.2383C36.9734 42.7534 36.7192 43.0798 36.3916 43.4894C36.0305 43.345 35.809 43.2441 35.5918 42.9153C35.4065 42.4359 35.3822 41.9998 35.3514 41.4876C35.3397 41.3038 35.3279 41.1201 35.3158 40.9307C35.3082 40.7907 35.3005 40.6506 35.2925 40.5063C35.1889 40.5063 35.0853 40.5063 34.9785 40.5063C35.0304 39.8846 35.0822 39.2629 35.1355 38.6223Z" fill="white"/>
<path d="M15.1973 37.0522C15.3009 37.0522 15.4044 37.0522 15.5112 37.0522C15.4016 37.5171 15.2599 37.9633 15.109 38.4162C14.871 39.1938 14.8441 39.8537 14.8833 40.6633C15.0339 40.7361 15.0339 40.7361 15.1875 40.8105C15.5113 40.9773 15.5113 40.9773 15.6683 41.1343C15.754 42.0242 15.7785 42.7628 15.1973 43.4893C14.9029 43.4599 14.9029 43.4599 14.5693 43.3323C14.2713 42.753 14.2201 42.2803 14.2357 41.6347C14.2385 41.4815 14.2413 41.3283 14.2442 41.1705C14.2479 41.0549 14.2514 40.9393 14.2552 40.8203C13.8925 40.8721 13.5299 40.9239 13.1562 40.9773C13.1562 40.8737 13.1562 40.77 13.1562 40.6633C13.7003 40.5856 13.7002 40.5856 14.2552 40.5063C14.1937 40.3088 14.1322 40.1112 14.0688 39.9077C13.964 39.571 13.9639 39.571 13.9412 39.2503C14.1534 39.0184 14.1535 39.0184 14.4123 38.7793C14.5572 38.4346 14.5571 38.4346 14.6575 38.0629C14.8505 37.399 14.8506 37.399 15.1973 37.0522Z" fill="white"/>
<path d="M32.6241 39.4072C32.6241 39.8782 32.6241 39.8782 32.4279 40.202C32.1802 40.6177 32.0184 40.9975 31.8489 41.4482C31.6082 42.0591 31.3924 42.568 30.8971 43.0183C30.4752 43.0771 30.4752 43.0771 30.1121 43.0183C30.0603 42.9665 30.0085 42.9146 29.9551 42.8613C29.9551 41.9196 30.2737 41.4736 30.9112 40.7982C31.4477 40.276 31.9997 39.8235 32.6241 39.4072Z" fill="white"/>
<path d="M35.9223 33.4414C35.9612 34.473 35.8161 35.4149 35.6083 36.4244C35.4528 36.4763 35.2974 36.5281 35.1373 36.5814C35.2351 35.5704 35.3948 34.5913 35.6083 33.5984C34.2354 34.2041 33.6749 35.8332 33.1349 37.1279C32.9077 37.7696 32.7827 38.3859 32.7068 39.061C32.6117 39.4652 32.4699 39.6173 32.1542 39.8785C31.9105 39.3909 32.1232 38.9572 32.2622 38.4557C32.2913 38.3491 32.3205 38.2425 32.3505 38.1327C32.5811 37.3156 32.8621 36.5515 33.2533 35.7964C33.3455 35.6152 33.3455 35.6152 33.4397 35.4303C34.6545 33.1412 34.6545 33.1412 35.9223 33.4414Z" fill="white"/>
<path d="M14.7268 40.3494C14.7786 40.453 14.8304 40.5566 14.8838 40.6634C15.0905 40.7732 15.2999 40.878 15.5118 40.9774C15.7692 41.2347 15.7018 41.5265 15.7081 41.8801C15.7043 42.5455 15.6249 42.9555 15.1978 43.4894C14.9906 43.4376 14.7833 43.3858 14.5698 43.3324C14.4184 42.7211 14.4142 42.2018 14.4717 41.5759C14.4859 41.4118 14.5 41.2477 14.5146 41.0786C14.5698 40.6634 14.5698 40.6634 14.7268 40.3494Z" fill="white"/>
<path d="M16.2959 36.5813C16.5285 36.7474 16.5285 36.7474 16.7669 37.0523C16.8203 37.5526 16.8203 37.5526 16.8129 38.163C16.8122 38.2703 16.8115 38.3777 16.8108 38.4883C16.8082 38.8307 16.8023 39.1729 16.7963 39.5153C16.7939 39.7476 16.7918 39.9799 16.7899 40.2123C16.7847 40.7813 16.7765 41.3503 16.7669 41.9193C16.6114 41.8675 16.456 41.8157 16.2959 41.7623C16.2959 40.9852 16.2959 40.208 16.2959 39.4073C15.5964 39.8736 15.5964 39.8736 14.8828 40.3493C15.1968 39.7213 15.1968 39.7213 15.6777 39.4368C16.1145 39.1051 16.1417 38.9193 16.2351 38.3623C16.282 37.7688 16.2944 37.1765 16.2959 36.5813Z" fill="white"/>
<path d="M35.9213 40.8206C36.5297 41.0953 36.5297 41.0953 36.7063 41.4486C36.6928 41.6913 36.6687 41.9336 36.6377 42.1747C36.6217 42.303 36.6057 42.4313 36.5892 42.5635C36.5761 42.6619 36.5629 42.7602 36.5493 42.8616C36.3939 42.9134 36.2385 42.9652 36.0783 43.0186C35.9135 42.5241 35.9054 42.1726 35.9115 41.6546C35.9129 41.4986 35.9144 41.3425 35.9158 41.1818C35.9176 41.0626 35.9195 40.9434 35.9213 40.8206Z" fill="#B8660E"/>
<path d="M31.6825 40.5063C31.7343 40.61 31.7861 40.7136 31.8395 40.8204C31.6941 41.1834 31.6941 41.1834 31.4764 41.6054C31.4058 41.7446 31.3351 41.8838 31.2624 42.0273C31.0545 42.3904 31.0545 42.3904 30.7405 42.7044C30.585 42.7044 30.4296 42.7044 30.2695 42.7044C30.3512 42.0549 30.5321 41.7287 30.976 41.2521C31.0747 41.1444 31.1735 41.0368 31.2752 40.9258C31.4097 40.7848 31.5447 40.6441 31.6825 40.5063Z" fill="#B8660E"/>
<path d="M14.7261 40.8206C15.1971 40.9776 15.1971 40.9776 15.5111 41.4486C15.5641 42.0704 15.5259 42.4843 15.1971 43.0186C15.0935 43.0186 14.9899 43.0186 14.8831 43.0186C14.6661 42.5845 14.7112 42.2263 14.7163 41.7429C14.7177 41.5709 14.7191 41.3989 14.7206 41.2216C14.7224 41.0893 14.7242 40.9569 14.7261 40.8206Z" fill="#B8660E"/>
<path d="M35.6077 33.4412C35.7114 33.4412 35.815 33.4412 35.9218 33.4412C35.9607 34.4727 35.8156 35.4146 35.6077 36.4242C35.4523 36.476 35.2969 36.5278 35.1367 36.5812C35.2409 35.522 35.4066 34.4861 35.6077 33.4412Z" fill="white"/>
<path d="M36.392 37.0522C36.4956 37.0522 36.5992 37.0522 36.706 37.0522C36.5505 37.8115 36.3988 38.54 36.078 39.2503C35.9744 39.2503 35.8708 39.2503 35.764 39.2503C35.764 38.9912 35.764 38.7322 35.764 38.4653C35.6086 38.4134 35.4531 38.3616 35.293 38.3083C35.5002 38.3083 35.7075 38.3083 35.921 38.3083C35.9501 38.1285 35.9501 38.1285 35.9799 37.9452C36.078 37.5233 36.078 37.5233 36.392 37.0522Z" fill="white"/>
<path d="M8.28892 35.3252C8.44435 35.3252 8.59978 35.3252 8.75992 35.3252C8.56074 36.2547 8.26699 36.9989 7.81791 37.8372C7.71429 37.8372 7.61067 37.8372 7.50391 37.8372C7.53427 37.748 7.56463 37.6587 7.5959 37.5668C7.84639 36.824 8.07995 36.0807 8.28892 35.3252Z" fill="white"/>
<path d="M35.1355 38.6223C35.3428 38.6223 35.55 38.6223 35.7635 38.6223C35.6599 39.244 35.5563 39.8658 35.4495 40.5063C35.2941 40.5063 35.1387 40.5063 34.9785 40.5063C35.0304 39.8846 35.0822 39.2629 35.1355 38.6223Z" fill="#B8660E"/>
<path d="M16.296 35.4823C15.805 35.7406 15.3061 35.9403 14.7849 36.1299C14.6339 36.1854 14.4829 36.2408 14.3274 36.298C13.941 36.4243 13.941 36.4243 13.627 36.4243C13.627 36.3207 13.627 36.2171 13.627 36.1103C13.9235 35.9737 14.2214 35.8402 14.5199 35.708C14.6857 35.6333 14.8514 35.5586 15.0222 35.4817C15.5371 35.317 15.7872 35.3247 16.296 35.4823Z" fill="white"/>
<path d="M15.1964 37.0522C15.3 37.0522 15.4036 37.0522 15.5104 37.0522C15.3534 37.6803 15.1964 38.3083 15.0394 38.9363C14.884 38.8845 14.7285 38.8326 14.5684 38.7793C14.6853 37.5633 14.6853 37.5633 15.1964 37.0522Z" fill="white"/>
<path d="M31.6825 40.9773C31.8723 41.5333 31.8449 41.5937 31.5745 42.1744C31.3056 42.6121 31.0876 42.8563 30.5835 43.0183C30.4798 42.9147 30.3762 42.8111 30.2695 42.7043C30.386 42.6525 30.5026 42.6007 30.6227 42.5473C31.204 42.1246 31.4063 41.6269 31.6825 40.9773Z" fill="white"/>
<path d="M37.4917 37.9944C37.5953 37.9944 37.6989 37.9944 37.8057 37.9944C37.8283 38.1174 37.851 38.2405 37.8744 38.3673C37.9435 38.7738 37.9435 38.7738 38.1197 39.0934C37.9642 39.3006 37.8088 39.5079 37.6487 39.7214C37.5969 39.566 37.545 39.4105 37.4917 39.2504C37.388 39.1986 37.2844 39.1468 37.1777 39.0934C37.2813 38.7307 37.3849 38.368 37.4917 37.9944Z" fill="white"/>
<path d="M37.4904 39.2505C37.8044 39.7215 37.8044 39.7215 37.7455 40.0649C37.7132 40.1588 37.6808 40.2527 37.6474 40.3495C37.3334 40.1925 37.3334 40.1925 37.1764 39.7215C36.7878 39.9546 36.7878 39.9546 36.3914 40.1925C36.3396 40.0889 36.2878 39.9853 36.2344 39.8785C36.9605 39.2505 36.9605 39.2505 37.4904 39.2505Z" fill="white"/>
<path d="M26.0289 35.0112C26.1325 35.0112 26.2361 35.0112 26.3429 35.0112C26.2911 35.5293 26.2393 36.0474 26.1859 36.5812C26.0823 36.5812 25.9787 36.5812 25.8719 36.5812C25.8523 35.3645 25.8523 35.3645 26.0289 35.0112Z" fill="white"/>
<path d="M14.725 40.3494C14.7768 40.453 14.8286 40.5566 14.882 40.6634C15.1986 40.8413 15.1986 40.8413 15.51 40.9774C15.51 41.1328 15.51 41.2882 15.51 41.4484C15.4064 41.3966 15.3028 41.3448 15.196 41.2914C15.196 41.1878 15.196 41.0841 15.196 40.9774C15.0924 40.9774 14.9888 40.9774 14.882 40.9774C14.8302 41.34 14.7784 41.7027 14.725 42.0764C14.6732 42.0764 14.6214 42.0764 14.568 42.0764C14.5638 41.8474 14.5607 41.6185 14.5582 41.3895C14.5564 41.262 14.5545 41.1345 14.5527 41.0031C14.568 40.6634 14.568 40.6634 14.725 40.3494Z" fill="white"/>
<path d="M27.287 37.6804C27.3388 37.8359 27.3906 37.9913 27.444 38.1514C27.2886 38.3846 27.2886 38.3846 27.13 38.6224C27.0695 38.8823 27.0157 39.144 26.973 39.4074C26.8176 39.3038 26.6621 39.2002 26.502 39.0934C26.6981 38.5503 26.922 38.1284 27.287 37.6804Z" fill="white"/>
<path d="M26.9722 40.0354C27.231 40.5012 27.3557 40.9234 27.4432 41.4484C27.2878 41.3966 27.1324 41.3448 26.9722 41.2914C26.7858 40.7321 26.7858 40.7321 26.6582 40.1924C26.7618 40.1406 26.8655 40.0888 26.9722 40.0354Z" fill="white"/>
<path d="M24.3026 38.1514C24.3544 38.1514 24.4062 38.1514 24.4596 38.1514C24.4711 38.3186 24.4711 38.3186 24.4829 38.4893C24.4946 38.6336 24.5064 38.7779 24.5185 38.9266C24.5294 39.0705 24.5403 39.2144 24.5516 39.3626C24.573 39.481 24.5945 39.5994 24.6166 39.7214C24.7202 39.7732 24.8238 39.825 24.9306 39.8784C24.7752 39.9302 24.6197 39.982 24.4596 40.0354C24.1086 39.5089 24.1184 39.4219 24.2045 38.8284C24.2219 38.7015 24.2393 38.5746 24.2572 38.4439C24.2722 38.3474 24.2872 38.2508 24.3026 38.1514Z" fill="white"/>
<path d="M14.5694 42.0764C14.7987 42.4921 14.8834 42.6879 14.8834 43.1754C14.987 43.1754 15.0906 43.1754 15.1974 43.1754C15.1974 43.279 15.1974 43.3827 15.1974 43.4894C14.9901 43.4376 14.7829 43.3858 14.5694 43.3324C14.4438 42.8164 14.3972 42.5929 14.5694 42.0764Z" fill="white"/>
<path d="M36.3929 37.0522C36.4965 37.0522 36.6001 37.0522 36.7069 37.0522C36.6033 37.5185 36.4997 37.9848 36.3929 38.4653C36.2375 38.3616 36.082 38.258 35.9219 38.1513C36.2163 37.2289 36.2163 37.2289 36.3929 37.0522Z" fill="white"/>
<path d="M23.9893 38.1514C24.0929 38.1514 24.1965 38.1514 24.3033 38.1514C24.3033 38.4104 24.3033 38.6695 24.3033 38.9364C24.1996 38.8846 24.096 38.8328 23.9893 38.7794C23.8338 38.9866 23.6784 39.1939 23.5183 39.4074C23.4664 39.3038 23.4146 39.2001 23.3613 39.0934C23.5613 38.7734 23.7711 38.4593 23.9893 38.1514Z" fill="white"/>
<path d="M45.8111 38.7795C45.9147 38.7795 46.0183 38.7795 46.1251 38.7795C45.9604 39.1912 45.8661 39.3752 45.4774 39.6038C45.3803 39.6427 45.2832 39.6815 45.1831 39.7215C45.0794 39.6179 44.9758 39.5143 44.8691 39.4075C44.9954 39.3331 45.1216 39.2586 45.2518 39.1819C45.6301 38.9728 45.6301 38.9728 45.8111 38.7795Z" fill="white"/>
<path d="M41.5745 37.8374C41.8984 37.9061 41.8984 37.9061 42.2026 37.9944C42.2026 38.098 42.2026 38.2016 42.2026 38.3084C41.8399 38.412 41.4772 38.5156 41.1035 38.6224C41.3979 38.014 41.3979 38.014 41.5745 37.8374Z" fill="white"/>
<path d="M34.4569 0C34.5605 0 34.6641 0 34.7709 0C34.8435 0.14616 34.9162 0.292319 34.9911 0.442908C35.776 2.01854 36.5732 3.58762 37.3769 5.15372C37.5762 5.54204 37.7751 5.93051 37.9741 6.319C38.6961 7.72769 39.4262 9.13181 40.1652 10.5317C40.753 11.6461 41.3308 12.7655 41.9061 13.8865C42.7259 15.4838 43.5487 17.0792 44.3885 18.6661C45.0289 19.8781 45.6571 21.0963 46.286 22.3142C47.0517 23.7969 47.8209 25.2778 48.5958 26.7557C48.7013 26.9574 48.7013 26.9574 48.809 27.1631C48.8688 27.2772 48.9287 27.3912 48.9903 27.5088C49.3325 28.1751 49.665 28.8463 50 29.5163C47.824 29.5163 45.6479 29.5163 43.4059 29.5163C43.0271 28.8071 43.0271 28.8071 42.6406 28.0836C42.5615 27.9365 42.4823 27.7893 42.4008 27.6377C42.3379 27.5189 42.2749 27.4001 42.21 27.2778C42.1459 27.1577 42.0818 27.0377 42.0157 26.914C41.8148 26.4884 41.6708 26.0377 41.5219 25.5912C34.5275 25.6689 34.5275 25.6689 27.3918 25.7482C26.8219 26.9399 26.252 28.1315 25.6648 29.3593C25.5078 29.5163 25.5078 29.5163 24.9384 29.5261C24.6835 29.5231 24.4287 29.5198 24.1739 29.5163C23.8953 29.5161 23.6168 29.5163 23.3383 29.5169C22.8989 29.5176 22.46 29.5163 22.0207 29.5082C20.0151 29.4196 20.0151 29.4196 18.3207 30.3467C18.2062 30.4744 18.0917 30.6022 17.9737 30.7338C17.5165 31.2438 16.9973 31.4933 16.3821 31.7732C16.2799 31.8227 16.1777 31.8723 16.0724 31.9234C13.3141 33.2397 10.2031 33.3835 7.28205 32.4498C4.6313 31.5015 2.50948 29.5058 1.202 27.0435C0.357158 25.2241 0.0206107 23.6172 0.00486796 21.6269C0.00326154 21.4709 0.00165511 21.3149 0 21.1542C0.033201 18.3565 1.32545 15.7185 3.23321 13.7082C4.13663 12.8395 5.09471 12.2135 6.19661 11.6181C6.31743 11.5521 6.43826 11.4861 6.56274 11.4182C8.78883 10.3196 11.702 10.1343 14.0786 10.8368C16.6433 11.7323 19.2237 13.1139 20.6407 15.5431C20.6407 15.6986 20.6407 15.854 20.6407 16.0141C20.3769 16.2525 20.3769 16.2525 20.0103 16.5011C19.8785 16.591 19.7468 16.6808 19.611 16.7734C19.4716 16.8661 19.3321 16.9588 19.1885 17.0543C19.0515 17.1482 18.9144 17.2421 18.7733 17.3388C17.6528 18.095 17.6528 18.095 17.0297 18.2122C16.9441 18.1098 16.8585 18.0073 16.7703 17.9018C15.3237 16.2253 13.7981 15.1836 11.5285 15.012C9.72169 14.9335 8.38874 15.3387 6.98714 16.498C5.77558 17.6398 4.85149 19.2391 4.75416 20.918C4.71346 23.2887 5.26673 25.1978 6.9117 26.9503C8.29994 28.2522 9.74307 28.5252 11.591 28.4994C12.6134 28.4598 13.4805 28.3449 14.3607 27.7892C14.4704 27.7208 14.5801 27.6524 14.6931 27.582C16.0946 26.6141 16.8761 25.4292 17.5007 23.8642C17.6043 23.6052 17.708 23.3461 17.8147 23.0792C19.369 23.0792 20.9233 23.0792 22.5248 23.0792C22.7445 22.6491 22.9643 22.2191 23.1908 21.776C23.4095 21.3482 23.6283 20.9206 23.8472 20.4929C23.9964 20.2011 24.1456 19.9092 24.2947 19.6174C25.1303 17.9821 25.9719 16.3505 26.8295 14.7267C27.4081 13.6305 27.9769 12.5294 28.543 11.4266C28.8303 10.8672 29.118 10.308 29.4058 9.74881C29.4626 9.6386 29.5193 9.52839 29.5777 9.41484C30.1282 8.34613 30.684 7.2803 31.2412 6.21509C31.9078 4.94003 32.5694 3.66248 33.2303 2.38446C33.2828 2.28283 33.3354 2.1812 33.3896 2.07649C33.9279 1.04065 33.9279 1.04065 34.4569 0Z" fill="white"/>
<path d="M34.3015 11.147C34.789 11.7329 35.1018 12.391 35.438 13.0696C35.5013 13.1963 35.5646 13.323 35.6298 13.4535C35.7638 13.722 35.8974 13.9905 36.0308 14.2592C36.2316 14.6637 36.4334 15.0677 36.6354 15.4716C38.6976 19.6043 38.6976 19.6043 38.6976 20.0961C35.848 20.0961 32.9984 20.0961 30.0625 20.0961C30.269 19.4766 30.4562 18.9541 30.7386 18.3797C30.8099 18.2341 30.8812 18.0884 30.9546 17.9384C31.0692 17.7065 31.0692 17.7065 31.186 17.47C31.265 17.309 31.344 17.148 31.4253 16.9822C31.677 16.4695 31.9295 15.9572 32.182 15.4449C32.352 15.099 32.5218 14.7531 32.6917 14.4072C33.8718 12.0047 33.8718 12.0047 34.3015 11.147Z" fill="#B5640D"/>
</svg>
